<svg xmlns="http://www.w3.org/2000/svg" xmlns:xlink="http://www.w3.org/1999/xlink" width="1000" zoomAndPan="magnify" viewBox="0 0 750 749.999995" height="1000" preserveAspectRatio="xMidYMid meet" version="1.0"><defs><clipPath id="ee818d24ab"><path d="M 215.433594 177.488281 L 577.4375 177.488281 L 577.4375 675 L 215.433594 675 Z M 215.433594 177.488281 " clip-rule="nonzero"/></clipPath><linearGradient x1="0" gradientTransform="matrix(1.414082, 0, 0, 1.943408, 215.434011, 177.487439)" y1="-0.00000833346" x2="0" gradientUnits="userSpaceOnUse" y2="255.999984" id="40226e9e28"><stop stop-opacity="1" stop-color="rgb(61.999512%, 10.198975%, 27.799988%)" offset="0"/><stop stop-opacity="1" stop-color="rgb(61.999512%, 10.198975%, 27.799988%)" offset="0.5"/><stop stop-opacity="1" stop-color="rgb(62.103271%, 10.314941%, 27.809143%)" offset="0.507813"/><stop stop-opacity="1" stop-color="rgb(62.310791%, 10.548401%, 27.827454%)" offset="0.515625"/><stop stop-opacity="1" stop-color="rgb(62.518311%, 10.780334%, 27.845764%)" offset="0.523438"/><stop stop-opacity="1" stop-color="rgb(62.72583%, 11.013794%, 27.864075%)" offset="0.53125"/><stop stop-opacity="1" stop-color="rgb(62.934875%, 11.245728%, 27.883911%)" offset="0.539063"/><stop stop-opacity="1" stop-color="rgb(63.142395%, 11.479187%, 27.902222%)" offset="0.546875"/><stop stop-opacity="1" stop-color="rgb(63.349915%, 11.712646%, 27.920532%)" offset="0.554688"/><stop stop-opacity="1" stop-color="rgb(63.557434%, 11.94458%, 27.940369%)" offset="0.5625"/><stop stop-opacity="1" stop-color="rgb(63.764954%, 12.17804%, 27.958679%)" offset="0.570312"/><stop stop-opacity="1" stop-color="rgb(63.973999%, 12.409973%, 27.97699%)" offset="0.578125"/><stop stop-opacity="1" stop-color="rgb(64.181519%, 12.643433%, 27.9953%)" offset="0.585938"/><stop stop-opacity="1" stop-color="rgb(64.389038%, 12.876892%, 28.015137%)" offset="0.59375"/><stop stop-opacity="1" stop-color="rgb(64.596558%, 13.108826%, 28.033447%)" offset="0.601563"/><stop stop-opacity="1" stop-color="rgb(64.804077%, 13.342285%, 28.051758%)" offset="0.609375"/><stop stop-opacity="1" stop-color="rgb(65.013123%, 13.574219%, 28.071594%)" offset="0.617188"/><stop stop-opacity="1" stop-color="rgb(65.220642%, 13.807678%, 28.089905%)" offset="0.625"/><stop stop-opacity="1" stop-color="rgb(65.428162%, 14.039612%, 28.108215%)" offset="0.632813"/><stop stop-opacity="1" stop-color="rgb(65.635681%, 14.273071%, 28.126526%)" offset="0.640625"/><stop stop-opacity="1" stop-color="rgb(65.843201%, 14.506531%, 28.146362%)" offset="0.648438"/><stop stop-opacity="1" stop-color="rgb(66.05072%, 14.738464%, 28.164673%)" offset="0.65625"/><stop stop-opacity="1" stop-color="rgb(66.259766%, 14.971924%, 28.182983%)" offset="0.664062"/><stop stop-opacity="1" stop-color="rgb(66.467285%, 15.203857%, 28.20282%)" offset="0.671875"/><stop stop-opacity="1" stop-color="rgb(66.674805%, 15.437317%, 28.22113%)" offset="0.679688"/><stop stop-opacity="1" stop-color="rgb(66.882324%, 15.66925%, 28.239441%)" offset="0.6875"/><stop stop-opacity="1" stop-color="rgb(67.089844%, 15.90271%, 28.257751%)" offset="0.695312"/><stop stop-opacity="1" stop-color="rgb(67.298889%, 16.136169%, 28.277588%)" offset="0.703125"/><stop stop-opacity="1" stop-color="rgb(67.506409%, 16.368103%, 28.295898%)" offset="0.710938"/><stop stop-opacity="1" stop-color="rgb(67.713928%, 16.601562%, 28.314209%)" offset="0.71875"/><stop stop-opacity="1" stop-color="rgb(67.921448%, 16.833496%, 28.334045%)" offset="0.726563"/><stop stop-opacity="1" stop-color="rgb(68.128967%, 17.066956%, 28.352356%)" offset="0.734375"/><stop stop-opacity="1" stop-color="rgb(68.338013%, 17.298889%, 28.370667%)" offset="0.742188"/><stop stop-opacity="1" stop-color="rgb(68.545532%, 17.532349%, 28.388977%)" offset="0.75"/><stop stop-opacity="1" stop-color="rgb(68.753052%, 17.765808%, 28.408813%)" offset="0.757812"/><stop stop-opacity="1" stop-color="rgb(68.960571%, 17.997742%, 28.427124%)" offset="0.765625"/><stop stop-opacity="1" stop-color="rgb(69.168091%, 18.231201%, 28.445435%)" offset="0.773438"/><stop stop-opacity="1" stop-color="rgb(69.377136%, 18.463135%, 28.465271%)" offset="0.78125"/><stop stop-opacity="1" stop-color="rgb(69.584656%, 18.696594%, 28.483582%)" offset="0.789062"/><stop stop-opacity="1" stop-color="rgb(69.792175%, 18.928528%, 28.501892%)" offset="0.796875"/><stop stop-opacity="1" stop-color="rgb(69.999695%, 19.161987%, 28.520203%)" offset="0.804688"/><stop stop-opacity="1" stop-color="rgb(70.207214%, 19.395447%, 28.540039%)" offset="0.8125"/><stop stop-opacity="1" stop-color="rgb(70.414734%, 19.62738%, 28.55835%)" offset="0.820313"/><stop stop-opacity="1" stop-color="rgb(70.623779%, 19.86084%, 28.57666%)" offset="0.828125"/><stop stop-opacity="1" stop-color="rgb(70.831299%, 20.092773%, 28.596497%)" offset="0.835938"/><stop stop-opacity="1" stop-color="rgb(71.038818%, 20.326233%, 28.614807%)" offset="0.84375"/><stop stop-opacity="1" stop-color="rgb(71.246338%, 20.559692%, 28.633118%)" offset="0.851562"/><stop stop-opacity="1" stop-color="rgb(71.453857%, 20.791626%, 28.651428%)" offset="0.859375"/><stop stop-opacity="1" stop-color="rgb(71.662903%, 21.025085%, 28.671265%)" offset="0.867188"/><stop stop-opacity="1" stop-color="rgb(71.870422%, 21.257019%, 28.689575%)" offset="0.875"/><stop stop-opacity="1" stop-color="rgb(72.077942%, 21.490479%, 28.707886%)" offset="0.882812"/><stop stop-opacity="1" stop-color="rgb(72.285461%, 21.722412%, 28.727722%)" offset="0.890625"/><stop stop-opacity="1" stop-color="rgb(72.492981%, 21.955872%, 28.746033%)" offset="0.898437"/><stop stop-opacity="1" stop-color="rgb(72.702026%, 22.189331%, 28.764343%)" offset="0.90625"/><stop stop-opacity="1" stop-color="rgb(72.909546%, 22.421265%, 28.782654%)" offset="0.914063"/><stop stop-opacity="1" stop-color="rgb(73.117065%, 22.654724%, 28.80249%)" offset="0.921875"/><stop stop-opacity="1" stop-color="rgb(73.324585%, 22.886658%, 28.820801%)" offset="0.929688"/><stop stop-opacity="1" stop-color="rgb(73.532104%, 23.120117%, 28.839111%)" offset="0.9375"/><stop stop-opacity="1" stop-color="rgb(73.74115%, 23.352051%, 28.858948%)" offset="0.945312"/><stop stop-opacity="1" stop-color="rgb(73.948669%, 23.58551%, 28.877258%)" offset="0.953125"/><stop stop-opacity="1" stop-color="rgb(74.156189%, 23.81897%, 28.895569%)" offset="0.960938"/><stop stop-opacity="1" stop-color="rgb(74.363708%, 24.050903%, 28.913879%)" offset="0.96875"/><stop stop-opacity="1" stop-color="rgb(74.571228%, 24.284363%, 28.933716%)" offset="0.976562"/><stop stop-opacity="1" stop-color="rgb(74.780273%, 24.516296%, 28.952026%)" offset="0.984375"/><stop stop-opacity="1" stop-color="rgb(74.987793%, 24.749756%, 28.970337%)" offset="0.992187"/><stop stop-opacity="1" stop-color="rgb(75.195312%, 24.981689%, 28.990173%)" offset="1"/></linearGradient><clipPath id="167b87838f"><path d="M 215.433594 177.488281 L 577.4375 177.488281 L 577.4375 674.738281 L 215.433594 674.738281 Z M 215.433594 177.488281 " clip-rule="nonzero"/></clipPath><clipPath id="3a139fec9f"><path d="M 215.433594 75 L 577.4375 75 L 577.4375 300 L 215.433594 300 Z M 215.433594 75 " clip-rule="nonzero"/></clipPath><clipPath id="974c156c7f"><path d="M 396.4375 75 C 296.472656 75 215.433594 125.367188 215.433594 187.5 C 215.433594 249.632812 296.472656 300 396.4375 300 C 496.402344 300 577.4375 249.632812 577.4375 187.5 C 577.4375 125.367188 496.402344 75 396.4375 75 Z M 396.4375 75 " clip-rule="nonzero"/></clipPath><linearGradient x1="0" gradientTransform="matrix(1.414082, 0, 0, 0.878906, 215.434011, 75.000019)" y1="-0.00000355556" x2="0" gradientUnits="userSpaceOnUse" y2="255.999986" id="931ed7d563"><stop stop-opacity="1" stop-color="rgb(56.498718%, 7.499695%, 30.198669%)" offset="0"/><stop stop-opacity="1" stop-color="rgb(56.671143%, 7.583618%, 30.123901%)" offset="0.0625"/><stop stop-opacity="1" stop-color="rgb(57.014465%, 7.751465%, 29.974365%)" offset="0.125"/><stop stop-opacity="1" stop-color="rgb(57.357788%, 7.920837%, 29.823303%)" offset="0.1875"/><stop stop-opacity="1" stop-color="rgb(57.701111%, 8.088684%, 29.673767%)" offset="0.25"/><stop stop-opacity="1" stop-color="rgb(58.045959%, 8.258057%, 29.524231%)" offset="0.3125"/><stop stop-opacity="1" stop-color="rgb(58.389282%, 8.427429%, 29.374695%)" offset="0.375"/><stop stop-opacity="1" stop-color="rgb(58.732605%, 8.595276%, 29.223633%)" offset="0.4375"/><stop stop-opacity="1" stop-color="rgb(59.077454%, 8.764648%, 29.074097%)" offset="0.5"/><stop stop-opacity="1" stop-color="rgb(59.420776%, 8.932495%, 28.924561%)" offset="0.5625"/><stop stop-opacity="1" stop-color="rgb(59.764099%, 9.101868%, 28.773499%)" offset="0.625"/><stop stop-opacity="1" stop-color="rgb(60.107422%, 9.27124%, 28.623962%)" offset="0.6875"/><stop stop-opacity="1" stop-color="rgb(60.452271%, 9.439087%, 28.474426%)" offset="0.75"/><stop stop-opacity="1" stop-color="rgb(60.795593%, 9.608459%, 28.323364%)" offset="0.8125"/><stop stop-opacity="1" stop-color="rgb(61.138916%, 9.776306%, 28.173828%)" offset="0.875"/><stop stop-opacity="1" stop-color="rgb(61.483765%, 9.945679%, 28.024292%)" offset="0.9375"/><stop stop-opacity="1" stop-color="rgb(61.827087%, 10.115051%, 27.874756%)" offset="1"/></linearGradient><clipPath id="8ddaa77ebe"><path d="M 215.433594 75 L 577.542969 75 L 577.542969 300 L 215.433594 300 Z M 215.433594 75 " clip-rule="nonzero"/></clipPath><clipPath id="fe3d347213"><path d="M 396.4375 75 C 296.472656 75 215.433594 125.367188 215.433594 187.5 C 215.433594 249.632812 296.472656 300 396.4375 300 C 496.402344 300 577.4375 249.632812 577.4375 187.5 C 577.4375 125.367188 496.402344 75 396.4375 75 Z M 396.4375 75 " clip-rule="nonzero"/></clipPath><clipPath id="407d419fba"><path d="M 218.714844 177.488281 L 574.054688 177.488281 L 574.054688 402.488281 L 218.714844 402.488281 Z M 218.714844 177.488281 " clip-rule="nonzero"/></clipPath><linearGradient x1="0" gradientTransform="matrix(1.388045, 0, 0, 0.878906, 218.714831, 177.487439)" y1="-0.0000184267" x2="0" gradientUnits="userSpaceOnUse" y2="255.999971" id="584e27c855"><stop stop-opacity="1" stop-color="rgb(58.399963%, 8.198547%, 29.399109%)" offset="0"/><stop stop-opacity="1" stop-color="rgb(58.511353%, 8.261108%, 29.348755%)" offset="0.0625"/><stop stop-opacity="1" stop-color="rgb(58.735657%, 8.38623%, 29.249573%)" offset="0.125"/><stop stop-opacity="1" stop-color="rgb(58.961487%, 8.511353%, 29.148865%)" offset="0.1875"/><stop stop-opacity="1" stop-color="rgb(59.185791%, 8.636475%, 29.048157%)" offset="0.25"/><stop stop-opacity="1" stop-color="rgb(59.411621%, 8.761597%, 28.948975%)" offset="0.3125"/><stop stop-opacity="1" stop-color="rgb(59.635925%, 8.886719%, 28.848267%)" offset="0.375"/><stop stop-opacity="1" stop-color="rgb(59.861755%, 9.011841%, 28.749084%)" offset="0.4375"/><stop stop-opacity="1" stop-color="rgb(60.08606%, 9.136963%, 28.648376%)" offset="0.5"/><stop stop-opacity="1" stop-color="rgb(60.31189%, 9.262085%, 28.549194%)" offset="0.5625"/><stop stop-opacity="1" stop-color="rgb(60.536194%, 9.387207%, 28.448486%)" offset="0.625"/><stop stop-opacity="1" stop-color="rgb(60.762024%, 9.512329%, 28.349304%)" offset="0.6875"/><stop stop-opacity="1" stop-color="rgb(60.986328%, 9.635925%, 28.248596%)" offset="0.75"/><stop stop-opacity="1" stop-color="rgb(61.210632%, 9.761047%, 28.149414%)" offset="0.8125"/><stop stop-opacity="1" stop-color="rgb(61.436462%, 9.886169%, 28.048706%)" offset="0.875"/><stop stop-opacity="1" stop-color="rgb(61.660767%, 10.011292%, 27.949524%)" offset="0.9375"/><stop stop-opacity="1" stop-color="rgb(61.886597%, 10.136414%, 27.848816%)" offset="1"/></linearGradient><clipPath id="42dfc33b39"><path d="M 354.371094 307.800781 L 435.503906 307.800781 L 435.503906 388.933594 L 354.371094 388.933594 Z M 354.371094 307.800781 " clip-rule="nonzero"/></clipPath><clipPath id="c03ee6e2e1"><path d="M 394.9375 307.800781 C 372.53125 307.800781 354.371094 325.960938 354.371094 348.367188 C 354.371094 370.769531 372.53125 388.933594 394.9375 388.933594 C 417.339844 388.933594 435.503906 370.769531 435.503906 348.367188 C 435.503906 325.960938 417.339844 307.800781 394.9375 307.800781 Z M 394.9375 307.800781 " clip-rule="nonzero"/></clipPath><clipPath id="5e03f7c66c"><path d="M 354.371094 307.800781 L 435.371094 307.800781 L 435.371094 388.800781 L 354.371094 388.800781 Z M 354.371094 307.800781 " clip-rule="nonzero"/></clipPath><clipPath id="3f47914669"><path d="M 394.933594 307.800781 C 372.53125 307.800781 354.371094 325.960938 354.371094 348.363281 C 354.371094 370.769531 372.53125 388.929688 394.933594 388.929688 C 417.335938 388.929688 435.5 370.769531 435.5 348.363281 C 435.5 325.960938 417.335938 307.800781 394.933594 307.800781 Z M 394.933594 307.800781 " clip-rule="nonzero"/></clipPath></defs><rect x="-75" width="900" fill="#ffffff" y="-74.999999" height="899.999994" fill-opacity="1"/><rect x="-75" width="900" fill="#ffffff" y="-74.999999" height="899.999994" fill-opacity="1"/><g clip-path="url(#ee818d24ab)"><path fill="url(#40226e9e28)" d="M 215.433594 177.488281 L 215.433594 675 L 577.4375 675 L 577.4375 177.488281 Z M 215.433594 177.488281 " fill-rule="nonzero"/></g><g clip-path="url(#167b87838f)"><path stroke-linecap="butt" transform="matrix(0.75, 0, 0, 0.75, 215.435193, 177.487423)" fill="none" stroke-linejoin="miter" d="M -0.00213227 0.00114493 L 482.669797 0.00114493 L 482.669797 663.34497 L -0.00213227 663.34497 Z M -0.00213227 0.00114493 " stroke="#9e1a47" stroke-width="8" stroke-opacity="1" stroke-miterlimit="4"/></g><g clip-path="url(#3a139fec9f)"><g clip-path="url(#974c156c7f)"><path fill="url(#931ed7d563)" d="M 215.433594 75 L 215.433594 300 L 577.4375 300 L 577.4375 75 Z M 215.433594 75 " fill-rule="nonzero"/></g></g><g clip-path="url(#8ddaa77ebe)"><g clip-path="url(#fe3d347213)"><path stroke-linecap="butt" transform="matrix(0.75, 0, 0, 0.75, 215.434005, 75.00036)" fill="none" stroke-linejoin="miter" d="M 241.338005 -0.000479393 C 108.05154 -0.000479393 -0.000548268 67.155774 -0.000548268 149.999528 C -0.000548268 232.843282 108.05154 299.999535 241.338005 299.999535 C 374.62447 299.999535 482.67135 232.843282 482.67135 149.999528 C 482.67135 67.155774 374.62447 -0.000479393 241.338005 -0.000479393 Z M 241.338005 -0.000479393 " stroke="#9e1a47" stroke-width="10" stroke-opacity="1" stroke-miterlimit="4"/></g></g><g clip-path="url(#407d419fba)"><path fill="url(#584e27c855)" d="M 218.714844 177.488281 L 218.714844 402.488281 L 574.054688 402.488281 L 574.054688 177.488281 Z M 218.714844 177.488281 " fill-rule="nonzero"/></g><path stroke-linecap="butt" transform="matrix(0.725833, 0.188857, -0.188857, 0.725833, 219.092366, 578.109064)" fill="none" stroke-linejoin="miter" d="M 0.00084254 2.002221 L 489.562498 2.00207 " stroke="#cf4b3e" stroke-width="4" stroke-opacity="1" stroke-miterlimit="4"/><path stroke-linecap="butt" transform="matrix(0.736341, 0.142486, -0.142486, 0.736341, 357.826538, 515.805691)" fill="none" stroke-linejoin="miter" d="M 0.00157563 1.998298 L 298.24592 1.99892 " stroke="#cf4b3e" stroke-width="4" stroke-opacity="1" stroke-miterlimit="4"/><path stroke-linecap="butt" transform="matrix(0, 0.75, -0.75, 0, 396.435598, 221.001556)" fill="none" stroke-linejoin="miter" d="M -0.00207524 1.997464 L 343.643775 1.997464 " stroke="#f9b653" stroke-width="4" stroke-opacity="1" stroke-miterlimit="4"/><path stroke-linecap="butt" transform="matrix(0.75, 0, 0, 0.75, 276.436513, 346.8668)" fill="none" stroke-linejoin="miter" d="M 0.00131576 2.000517 L 320.001331 2.000517 " stroke="#f9b653" stroke-width="4" stroke-opacity="1" stroke-miterlimit="4"/><path stroke-linecap="butt" transform="matrix(0.587358, -0.46638, 0.46638, 0.587358, 323.062545, 403.51836)" fill="none" stroke-linejoin="miter" d="M 0.00221031 1.99891 L 241.556645 1.998614 " stroke="#f9b653" stroke-width="4" stroke-opacity="1" stroke-miterlimit="4"/><path stroke-linecap="butt" transform="matrix(0.592543, 0.459774, -0.459774, 0.592543, 322.742946, 292.040485)" fill="none" stroke-linejoin="miter" d="M 0.00167573 2.000373 L 241.55916 2.001272 " stroke="#f9b653" stroke-width="4" stroke-opacity="1" stroke-miterlimit="4"/><g clip-path="url(#42dfc33b39)"><g clip-path="url(#c03ee6e2e1)"><path fill="#9e1a47" d="M 354.371094 307.800781 L 435.503906 307.800781 L 435.503906 388.933594 L 354.371094 388.933594 Z M 354.371094 307.800781 " fill-opacity="1" fill-rule="nonzero"/></g></g><g clip-path="url(#5e03f7c66c)"><g clip-path="url(#3f47914669)"><path stroke-linecap="butt" transform="matrix(0.75, 0, 0, 0.75, 354.370005, 307.80024)" fill="none" stroke-linejoin="miter" d="M 54.084787 0.0007214 C 24.214994 0.0007214 0.00145116 24.214264 0.00145116 54.084057 C 0.00145116 83.959059 24.214994 108.172602 54.084787 108.172602 C 83.95458 108.172602 108.173331 83.959059 108.173331 54.084057 C 108.173331 24.214264 83.95458 0.0007214 54.084787 0.0007214 Z M 54.084787 0.0007214 " stroke="#f9b653" stroke-width="8" stroke-opacity="1" stroke-miterlimit="4"/></g></g><path stroke-linecap="butt" transform="matrix(0, 0.75, -0.75, 0, 472.028044, 541.731258)" fill="none" stroke-linejoin="miter" d="M -0.0010518 2.000933 L 100.88437 2.000933 " stroke="#cf4b3e" stroke-width="4" stroke-opacity="1" stroke-miterlimit="4"/><path stroke-linecap="butt" transform="matrix(-0.415256, -0.62455, 0.62455, -0.415256, 482.526747, 563.133977)" fill="none" stroke-linejoin="miter" d="M -0.0024635 2.000759 L 31.62125 1.999364 " stroke="#cf4b3e" stroke-width="4" stroke-opacity="1" stroke-miterlimit="4"/><path stroke-linecap="butt" transform="matrix(-0.375, 0.649519, -0.649519, -0.375, 471.824092, 543.231498)" fill="none" stroke-linejoin="miter" d="M -0.000110534 2.002552 L 31.620004 1.999359 " stroke="#cf4b3e" stroke-width="4" stroke-opacity="1" stroke-miterlimit="4"/><path stroke-linecap="butt" transform="matrix(-0.415256, -0.62455, 0.62455, -0.415256, 482.526747, 585.172503)" fill="none" stroke-linejoin="miter" d="M -0.00305816 2.000364 L 31.620655 1.998969 " stroke="#cf4b3e" stroke-width="4" stroke-opacity="1" stroke-miterlimit="4"/><path stroke-linecap="butt" transform="matrix(-0.375, 0.649519, -0.649519, -0.375, 471.824092, 565.269952)" fill="none" stroke-linejoin="miter" d="M 0.000591032 2.002147 L 31.620706 1.998954 " stroke="#cf4b3e" stroke-width="4" stroke-opacity="1" stroke-miterlimit="4"/><path stroke-linecap="butt" transform="matrix(-0.415256, -0.62455, 0.62455, -0.415256, 482.526747, 607.210958)" fill="none" stroke-linejoin="miter" d="M 0.000604399 2.002799 L 31.61998 1.99852 " stroke="#cf4b3e" stroke-width="4" stroke-opacity="1" stroke-miterlimit="4"/><path stroke-linecap="butt" transform="matrix(-0.375, 0.649519, -0.649519, -0.375, 471.824092, 587.308479)" fill="none" stroke-linejoin="miter" d="M 0.00120946 2.00179 L 31.621324 1.998597 " stroke="#cf4b3e" stroke-width="4" stroke-opacity="1" stroke-miterlimit="4"/><path stroke-linecap="butt" transform="matrix(-0.704003, 0.258613, -0.258613, -0.704003, 577.951918, 580.968208)" fill="none" stroke-linejoin="miter" d="M 0.000636557 2.002519 L 211.227479 1.998265 " stroke="#cf4f3e" stroke-width="4" stroke-opacity="1" stroke-miterlimit="4"/><path stroke-linecap="butt" transform="matrix(0.684291, -0.306994, 0.306994, 0.684291, 218.100784, 578.19052)" fill="none" stroke-linejoin="miter" d="M 0.000363621 1.99942 L 202.878344 2.001119 " stroke="#cf4b3e" stroke-width="4" stroke-opacity="1" stroke-miterlimit="4"/><path stroke-linecap="butt" transform="matrix(0, 0.75, -0.75, 0, 277.261338, 428.368823)" fill="none" stroke-linejoin="miter" d="M -0.00218083 1.999492 L 100.883241 1.999492 " stroke="#cf4f3e" stroke-width="4" stroke-opacity="1" stroke-miterlimit="4"/><path stroke-linecap="butt" transform="matrix(-0.415256, -0.62455, 0.62455, -0.415256, 287.760017, 449.771566)" fill="none" stroke-linejoin="miter" d="M 0.000571519 1.998292 L 31.621401 2.001233 " stroke="#cf4f3e" stroke-width="4" stroke-opacity="1" stroke-miterlimit="4"/><path stroke-linecap="butt" transform="matrix(-0.375, 0.649519, -0.649519, -0.375, 277.0574, 429.869063)" fill="none" stroke-linejoin="miter" d="M -0.00179918 2.001885 L 31.618315 1.998693 " stroke="#cf4f3e" stroke-width="4" stroke-opacity="1" stroke-miterlimit="4"/><path stroke-linecap="butt" transform="matrix(-0.415256, -0.62455, 0.62455, -0.415256, 287.760017, 471.810045)" fill="none" stroke-linejoin="miter" d="M -0.0000764293 1.997861 L 31.620753 2.000803 " stroke="#cf4f3e" stroke-width="4" stroke-opacity="1" stroke-miterlimit="4"/><path stroke-linecap="butt" transform="matrix(-0.375, 0.649519, -0.649519, -0.375, 277.0574, 451.907542)" fill="none" stroke-linejoin="miter" d="M -0.00112532 2.001496 L 31.618989 1.998304 " stroke="#cf4f3e" stroke-width="4" stroke-opacity="1" stroke-miterlimit="4"/><path stroke-linecap="butt" transform="matrix(-0.415256, -0.62455, 0.62455, -0.415256, 287.760017, 493.8485)" fill="none" stroke-linejoin="miter" d="M -0.000751025 1.997412 L 31.620078 2.000354 " stroke="#cf4f3e" stroke-width="4" stroke-opacity="1" stroke-miterlimit="4"/><path stroke-linecap="butt" transform="matrix(-0.375, 0.649519, -0.649519, -0.375, 277.0574, 473.946021)" fill="none" stroke-linejoin="miter" d="M -0.000451471 2.001107 L 31.619663 1.997915 " stroke="#cf4f3e" stroke-width="4" stroke-opacity="1" stroke-miterlimit="4"/><path stroke-linecap="butt" transform="matrix(0.693943, 0.284504, -0.284504, 0.693943, 216.873069, 477.347229)" fill="none" stroke-linejoin="miter" d="M 0.000398788 1.998769 L 171.860975 1.998035 " stroke="#cf473d" stroke-width="4" stroke-opacity="1" stroke-miterlimit="4"/><path stroke-linecap="butt" transform="matrix(0, 0.75, -0.75, 0, 324.820974, 596.356623)" fill="none" stroke-linejoin="miter" d="M -0.00153892 2.000882 L 100.883883 2.000882 " stroke="#cf4f3e" stroke-width="4" stroke-opacity="1" stroke-miterlimit="4"/><path stroke-linecap="butt" transform="matrix(-0.415256, -0.62455, 0.62455, -0.415256, 335.319654, 617.759342)" fill="none" stroke-linejoin="miter" d="M -0.00210391 2.001098 L 31.621609 1.999703 " stroke="#cf4f3e" stroke-width="4" stroke-opacity="1" stroke-miterlimit="4"/><path stroke-linecap="butt" transform="matrix(-0.375, 0.649519, -0.649519, -0.375, 324.617036, 597.856815)" fill="none" stroke-linejoin="miter" d="M -0.000492948 2.002736 L 31.619622 1.999543 " stroke="#cf4f3e" stroke-width="4" stroke-opacity="1" stroke-miterlimit="4"/><path stroke-linecap="butt" transform="matrix(-0.415256, -0.62455, 0.62455, -0.415256, 335.319654, 639.797797)" fill="none" stroke-linejoin="miter" d="M -0.00277851 2.00065 L 31.620935 1.999254 " stroke="#cf4f3e" stroke-width="4" stroke-opacity="1" stroke-miterlimit="4"/><path stroke-linecap="butt" transform="matrix(-0.375, 0.649519, -0.649519, -0.375, 324.617036, 619.895318)" fill="none" stroke-linejoin="miter" d="M 0.000153192 2.002363 L 31.620268 1.99917 " stroke="#cf4f3e" stroke-width="4" stroke-opacity="1" stroke-miterlimit="4"/><path stroke-linecap="butt" transform="matrix(-0.415256, -0.62455, 0.62455, -0.415256, 335.319654, 661.836324)" fill="none" stroke-linejoin="miter" d="M 0.00096399 2.003138 L 31.62034 1.998859 " stroke="#cf4f3e" stroke-width="4" stroke-opacity="1" stroke-miterlimit="4"/><path stroke-linecap="butt" transform="matrix(-0.375, 0.649519, -0.649519, -0.375, 324.617036, 641.933773)" fill="none" stroke-linejoin="miter" d="M 0.000854758 2.001958 L 31.620969 1.998765 " stroke="#cf4f3e" stroke-width="4" stroke-opacity="1" stroke-miterlimit="4"/><path stroke-linecap="butt" transform="matrix(0, 0.928876, -0.928876, 0, 280.756189, 578.311624)" fill="none" stroke-linejoin="miter" d="M 0.000943272 1.999999 L 100.883096 1.999999 " stroke="#cf4f3e" stroke-width="4" stroke-opacity="1" stroke-miterlimit="4"/><path stroke-linecap="butt" transform="matrix(-0.514295, -0.773506, 0.773506, -0.514295, 293.758846, 604.818975)" fill="none" stroke-linejoin="miter" d="M 0.00188178 1.999739 L 31.620606 1.999282 " stroke="#cf4f3e" stroke-width="4" stroke-opacity="1" stroke-miterlimit="4"/><path stroke-linecap="butt" transform="matrix(-0.464438, 0.80443, -0.80443, -0.464438, 280.503591, 580.169632)" fill="none" stroke-linejoin="miter" d="M 0.00144236 1.999415 L 31.620175 2.002593 " stroke="#cf4f3e" stroke-width="4" stroke-opacity="1" stroke-miterlimit="4"/><path stroke-linecap="butt" transform="matrix(-0.514295, -0.773506, 0.773506, -0.514295, 293.758846, 632.113645)" fill="none" stroke-linejoin="miter" d="M -0.0000943874 1.998425 L 31.622132 2.000297 " stroke="#cf4f3e" stroke-width="4" stroke-opacity="1" stroke-miterlimit="4"/><path stroke-linecap="butt" transform="matrix(-0.464438, 0.80443, -0.80443, -0.464438, 280.503591, 607.464374)" fill="none" stroke-linejoin="miter" d="M -0.000211533 2.00037 L 31.622163 2.001445 " stroke="#cf4f3e" stroke-width="4" stroke-opacity="1" stroke-miterlimit="4"/><path stroke-linecap="butt" transform="matrix(-0.514295, -0.773506, 0.773506, -0.514295, 293.758846, 659.408316)" fill="none" stroke-linejoin="miter" d="M 0.00143138 1.999439 L 31.620156 1.998983 " stroke="#cf4f3e" stroke-width="4" stroke-opacity="1" stroke-miterlimit="4"/><path stroke-linecap="butt" transform="matrix(-0.464438, 0.80443, -0.80443, -0.464438, 280.503591, 634.759021)" fill="none" stroke-linejoin="miter" d="M 0.00186602 1.99917 L 31.620598 2.002348 " stroke="#cf4f3e" stroke-width="4" stroke-opacity="1" stroke-miterlimit="4"/><path stroke-linecap="butt" transform="matrix(0, 0.928876, -0.928876, 0, 550.260024, 398.126953)" fill="none" stroke-linejoin="miter" d="M -0.00210211 1.999922 L 100.884256 1.999922 " stroke="#cf4f3e" stroke-width="4" stroke-opacity="1" stroke-miterlimit="4"/><path stroke-linecap="butt" transform="matrix(-0.514295, -0.773506, 0.773506, -0.514295, 563.262695, 424.634255)" fill="none" stroke-linejoin="miter" d="M 0.00083884 1.999119 L 31.619563 1.998663 " stroke="#cf4f3e" stroke-width="4" stroke-opacity="1" stroke-miterlimit="4"/><path stroke-linecap="butt" transform="matrix(-0.464438, 0.80443, -0.80443, -0.464438, 550.007496, 399.984961)" fill="none" stroke-linejoin="miter" d="M -0.00119598 2.000936 L 31.621178 2.002011 " stroke="#cf4f3e" stroke-width="4" stroke-opacity="1" stroke-miterlimit="4"/><path stroke-linecap="butt" transform="matrix(-0.514295, -0.773506, 0.773506, -0.514295, 563.262695, 451.928926)" fill="none" stroke-linejoin="miter" d="M 0.0023646 2.000133 L 31.621089 1.999677 " stroke="#cf4f3e" stroke-width="4" stroke-opacity="1" stroke-miterlimit="4"/><path stroke-linecap="butt" transform="matrix(-0.464438, 0.80443, -0.80443, -0.464438, 550.007496, 427.279679)" fill="none" stroke-linejoin="miter" d="M 0.000814446 1.999775 L 31.623189 2.00085 " stroke="#cf4f3e" stroke-width="4" stroke-opacity="1" stroke-miterlimit="4"/><path stroke-linecap="butt" transform="matrix(-0.514295, -0.773506, 0.773506, -0.514295, 563.262695, 479.223621)" fill="none" stroke-linejoin="miter" d="M 0.000409947 1.998834 L 31.622636 2.000706 " stroke="#cf4f3e" stroke-width="4" stroke-opacity="1" stroke-miterlimit="4"/><path stroke-linecap="butt" transform="matrix(-0.464438, 0.80443, -0.80443, -0.464438, 550.007496, 454.57435)" fill="none" stroke-linejoin="miter" d="M -0.000772316 2.000691 L 31.621602 2.001767 " stroke="#cf4f3e" stroke-width="4" stroke-opacity="1" stroke-miterlimit="4"/><path stroke-linecap="butt" transform="matrix(0.669025, -0.338978, 0.338978, 0.669025, 456.696268, 536.51145)" fill="none" stroke-linejoin="miter" d="M 0.00203291 1.998276 L 174.403834 2.000053 " stroke="#cf4f3e" stroke-width="4" stroke-opacity="1" stroke-miterlimit="4"/><path stroke-linecap="butt" transform="matrix(0.246808, 0.452005, -0.452005, 0.246808, 260.827694, 167.964461)" fill="none" stroke-linejoin="miter" d="M -0.00346695 2.00211 L 21.170387 2.000614 " stroke="#f9b653" stroke-width="4" stroke-opacity="1" stroke-miterlimit="4"/><path stroke-linecap="butt" transform="matrix(-0.225668, -0.462922, 0.462922, -0.225668, 257.353526, 187.327861)" fill="none" stroke-linejoin="miter" d="M 0.00106047 2.00458 L 21.165469 2.001978 " stroke="#f9b653" stroke-width="4" stroke-opacity="1" stroke-miterlimit="4"/><path stroke-linecap="butt" transform="matrix(0.290914, -0.424961, 0.424961, 0.290914, 252.57954, 176.954894)" fill="none" stroke-linejoin="miter" d="M 0.00275674 1.998645 L 21.163342 1.999438 " stroke="#f9b653" stroke-width="4" stroke-opacity="1" stroke-miterlimit="4"/><path stroke-linecap="butt" transform="matrix(0.260268, -0.444391, 0.444391, 0.260268, 258.66119, 186.456587)" fill="none" stroke-linejoin="miter" d="M 0.00173359 2.000806 L 21.167191 1.998827 " stroke="#f9b653" stroke-width="4" stroke-opacity="1" stroke-miterlimit="4"/><path stroke-linecap="butt" transform="matrix(0.246808, 0.452005, -0.452005, 0.246808, 281.245331, 194.985934)" fill="none" stroke-linejoin="miter" d="M 0.000188617 2.003371 L 21.167385 1.99824 " stroke="#f9b653" stroke-width="4" stroke-opacity="1" stroke-miterlimit="4"/><path stroke-linecap="butt" transform="matrix(-0.225668, -0.462922, 0.462922, -0.225668, 277.77116, 214.349335)" fill="none" stroke-linejoin="miter" d="M 0.000672189 1.996675 L 21.168575 2.004214 " stroke="#f9b653" stroke-width="4" stroke-opacity="1" stroke-miterlimit="4"/><path stroke-linecap="butt" transform="matrix(0.290914, -0.424961, 0.424961, 0.290914, 272.997205, 203.976368)" fill="none" stroke-linejoin="miter" d="M -0.0000567897 2.001285 L 21.166787 1.997793 " stroke="#f9b653" stroke-width="4" stroke-opacity="1" stroke-miterlimit="4"/><path stroke-linecap="butt" transform="matrix(0.260268, -0.444391, 0.444391, 0.260268, 279.078827, 213.478075)" fill="none" stroke-linejoin="miter" d="M -0.00120646 2.003276 L 21.164251 2.001296 " stroke="#f9b653" stroke-width="4" stroke-opacity="1" stroke-miterlimit="4"/><path stroke-linecap="butt" transform="matrix(0.246808, 0.452005, -0.452005, 0.246808, 465.621628, 131.42739)" fill="none" stroke-linejoin="miter" d="M 0.00253171 1.998879 L 21.166093 2.000405 " stroke="#f9b653" stroke-width="4" stroke-opacity="1" stroke-miterlimit="4"/><path stroke-linecap="butt" transform="matrix(-0.225668, -0.462922, 0.462922, -0.225668, 462.14746, 150.790793)" fill="none" stroke-linejoin="miter" d="M -0.00145469 2.001268 L 21.169771 2.00199 " stroke="#f9b653" stroke-width="4" stroke-opacity="1" stroke-miterlimit="4"/><path stroke-linecap="butt" transform="matrix(0.290914, -0.424961, 0.424961, 0.290914, 457.3735, 140.417826)" fill="none" stroke-linejoin="miter" d="M -0.00139385 1.999153 L 21.169735 2.00192 " stroke="#f9b653" stroke-width="4" stroke-opacity="1" stroke-miterlimit="4"/><path stroke-linecap="butt" transform="matrix(0.260268, -0.444391, 0.444391, 0.260268, 463.455148, 149.919519)" fill="none" stroke-linejoin="miter" d="M -0.00244011 2.001025 L 21.163017 1.999045 " stroke="#f9b653" stroke-width="4" stroke-opacity="1" stroke-miterlimit="4"/><path stroke-linecap="butt" transform="matrix(0.246808, 0.452005, -0.452005, 0.246808, 517.947169, 239.63872)" fill="none" stroke-linejoin="miter" d="M 0.000633417 2.000769 L 21.164195 2.002294 " stroke="#f9b653" stroke-width="4" stroke-opacity="1" stroke-miterlimit="4"/><path stroke-linecap="butt" transform="matrix(-0.225668, -0.462922, 0.462922, -0.225668, 514.473026, 259.002108)" fill="none" stroke-linejoin="miter" d="M 0.000349584 1.999239 L 21.164758 1.996637 " stroke="#f9b653" stroke-width="4" stroke-opacity="1" stroke-miterlimit="4"/><path stroke-linecap="butt" transform="matrix(0.290914, -0.424961, 0.424961, 0.290914, 509.699042, 248.629138)" fill="none" stroke-linejoin="miter" d="M 0.00204053 2.002881 L 21.168884 1.999389 " stroke="#f9b653" stroke-width="4" stroke-opacity="1" stroke-miterlimit="4"/><path stroke-linecap="butt" transform="matrix(0.260268, -0.444391, 0.444391, 0.260268, 515.780714, 258.130848)" fill="none" stroke-linejoin="miter" d="M -0.00310546 1.998384 L 21.166185 2.00295 " stroke="#f9b653" stroke-width="4" stroke-opacity="1" stroke-miterlimit="4"/></svg>